2010.10.23-F1.17.Korea.Race.BBC1_UK-TDMK1.m4v

Jake Humphrey presents live coverage of the 17th round of the season at the Korea International Circuit in Yeongam, as a Formula 1 race is held in South Korea for the first time (Start-time 7.00am). While the track is new to all those competing, the likes of Mark Webber, Fernando Alonso, Lewis Hamilton and Sebastian Vettel will be hoping they can quickly adapt as they compete for vital points in the battle for the championship, with just two more Grands Prix to follow. Alonso and Vettel are right back in the title frame following recent performances, but if Hamilton is to have any chance of clawing back a 28-point deficit, then a victory here is an absolute must. Sebastian Vettel starts on pole position. Commentary by Jonathan Legard and Martin Brundle, with analysis from Eddie Jordan and David Coulthard.

Now encoded as 'MP4 All Play'... As a departure from the DivX files which I have uploaded in the past, I've made the decision to get with the 21st century & start encoding with the following specs this year;

MP4 - 640x352 - 800Kb/s H264 Video - 44.1KHz/128Kbps Stereo AAC Audio

My belief is this is the best all round setup, and hopefully you will agree!

This video will play on a computer with VLC, XBMC, XBox360, PS3, iPad all iPhones - enjoy the show... :)

General
Complete name                    : 2010.10.23-F1.17.Korea.Race.BBC1_UK-TDMK1.m4v
Format                           : MPEG-4
Format profile                   : Base Media / Version 2
Codec ID                         : mp42
File size                        : 1.75 GiB
Duration                         : 4h 28mn
Overall bit rate                 : 931 Kbps
Encoded date                     : UTC 2010-10-24 13:14:44
Tagged date                      : UTC 2010-10-24 17:36:21
Writing application              : HandBrake 0.9.4 2009112300

Video
ID                               : 1
Format                           : AVC
Format/Info                      : Advanced Video Codec
Format profile                   : Main@L3.0
Format settings, CABAC           : Yes
Format settings, ReFrames        : 2 frames
Codec ID                         : avc1
Codec ID/Info                    : Advanced Video Coding
Duration                         : 4h 28mn
Bit rate mode                    : Variable
Bit rate                         : 800 Kbps
Width                            : 640 pixels
Height                           : 352 pixels
Display aspect ratio             : 16:9
Frame rate mode                  : Variable
Frame rate                       : 25.000 fps
Minimum frame rate               : 12.498 fps
Maximum frame rate               : 25.000 fps
Color space                      : YUV
Chroma subsampling               : 4:2:0
Bit depth                        : 8 bits
Scan type                        : Progressive
Bits/(Pixel*Frame)               : 0.142
Stream size                      : 1.50 GiB (86%)
Writing library                  : x264 core 79
Encoding settings                : cabac=1 / ref=2 / deblock=1:0:0 / analyse=0x1:0x111 / me=hex / subme=6 / psy=1 / psy_rd=1.0:0.0 / mixed_ref=0 / me_range=16 / chroma_me=1 / trellis=0 / 8x8dct=0 / cqm=0 / deadzone=21,11 / chroma_qp_offset=-2 / threads=6 / nr=0 / decimate=1 / mbaff=0 / constrained_intra=0 / bframes=2 / b_pyramid=0 / b_adapt=1 / b_bias=0 / direct=1 / wpredb=0 / wpredp=2 / keyint=250 / keyint_min=25 / scenecut=40 / rc_lookahead=40 / rc=abr / mbtree=1 / bitrate=800 / ratetol=1.0 / qcomp=0.60 / qpmin=10 / qpmax=51 / qpstep=4 / ip_ratio=1.40 / aq=1:1.00
Encoded date                     : UTC 2010-10-24 13:14:44
Tagged date                      : UTC 2010-10-24 17:36:21
Color primaries                  : BT.601-6 525, BT.1358 525, BT.1700 NTSC, SMPTE 170M
Transfer characteristics         : BT.709-5, BT.1361
Matrix coefficients              : BT.601-6 525, BT.1358 525, BT.1700 NTSC, SMPTE 170M

Audio
ID                               : 2
Format                           : AAC
Format/Info                      : Advanced Audio Codec
Format version                   : Version 4
Format profile                   : LC
Format settings, SBR             : No
Codec ID                         : 40
Duration                         : 4h 28mn
Bit rate mode                    : Variable
Bit rate                         : 128 Kbps
Maximum bit rate                 : 165 Kbps
Channel(s)                       : 2 channels
Channel positions                : Front: L R
Sampling rate                    : 44.1 KHz
Stream size                      : 246 MiB (14%)
Encoded date                     : UTC 2010-10-24 13:14:44
Tagged date                      : UTC 2010-10-24 17:36:16

